<svg xmlns="http://www.w3.org/2000/svg" width="200" height="12" fill="none" viewBox="0 0 200 12"><path fill="#3D3F6F" fill-rule="evenodd" d="M84.9422 1.14924C75.5461 1.54308 66.2604 2.02734 57.2053 2.55676C44.3867 3.30569 31.5732 4.08046 18.8368 5.30716C14.8277 5.69454 10.7564 5.93986 6.77235 6.42409C4.27141 6.72753 0.955223 7.16005 0.520015 7.25044C0.292384 7.30209 0.193076 7.37964 0.160987 7.40546C-0.0646389 7.58624 -0.0234705 7.76049 0.103883 7.89607C0.155025 7.95418 0.284347 8.09627 0.643343 8.11564C24.6519 9.43919 49.2021 6.85666 73.2398 6.58549C114.925 6.12064 157.874 7.96715 199.229 11.9959C199.59 12.0282 199.941 11.8667 199.991 11.6278C200.052 11.3954 199.791 11.1694 199.43 11.1372C158.005 7.10195 114.986 5.24898 73.2197 5.72029C50.8175 5.97209 27.9732 8.2383 5.53992 7.46355C6.05535 7.39898 6.56078 7.33439 7.02206 7.27629C10.9901 6.79206 15.0443 6.5532 19.0374 6.16582C31.7466 4.93912 44.5341 4.16436 57.3357 3.42188C73.2197 2.49217 89.7957 1.69158 106.502 1.31711C112.479 1.37522 118.435 1.43335 124.392 1.50437C137.277 1.65933 150.223 2.11127 163.079 2.71816C166.95 2.9054 170.82 3.09907 174.691 3.26694C175.975 3.32504 179.284 3.49288 179.745 3.47997C180.317 3.46705 180.427 3.15718 180.437 3.10553C180.467 2.98931 180.447 2.8279 180.166 2.69231C180.136 2.67295 179.956 2.60834 179.555 2.5696C156.18 0.284066 131.221 -0.0967975 106.522 0.45199C80.4698 0.213106 54.3173 0.109757 28.3312 0C27.9591 0 27.6553 0.193718 27.6523 0.432602C27.6503 0.671486 27.9501 0.86521 28.3221 0.871666C47.1383 0.949142 66.0498 1.02657 84.9422 1.14924Z" clip-rule="evenodd"/></svg>