<?xml version="1.0" encoding="UTF-8" ?>
<!DOCTYPE svg PUBLIC "-//W3C//DTD SVG 1.1//EN" "http://www.w3.org/Graphics/SVG/1.1/DTD/svg11.dtd">
<svg width="118pt" height="120pt" viewBox="0 0 118 120" version="1.1" xmlns="http://www.w3.org/2000/svg">
<g id="#ffffffff">
</g>
<g id="#3d3f6fff">
<path fill="#3d3f6f" opacity="1.00" d=" M 29.84 8.87 C 42.75 1.54 58.40 -0.34 72.80 3.01 C 62.39 12.17 52.01 21.59 43.88 32.91 C 41.28 36.88 38.59 41.13 38.12 45.96 C 37.67 49.07 39.44 52.51 42.54 53.46 C 46.84 54.73 51.83 55.39 54.93 58.99 C 56.92 61.49 56.00 65.01 54.38 67.44 C 51.80 71.39 48.15 74.50 44.52 77.45 C 34.37 85.24 23.15 91.49 11.75 97.23 C 5.66 89.38 1.63 80.01 0.00 70.22 L 0.00 51.44 C 2.75 33.67 14.08 17.51 29.84 8.87 Z" />
<path fill="#3d3f6f" opacity="1.00" d=" M 79.04 4.95 C 100.90 12.72 116.98 34.19 118.00 57.41 L 118.00 66.25 C 116.75 76.31 113.44 86.18 107.60 94.52 C 98.21 108.28 82.78 117.66 66.26 119.75 C 74.41 107.45 82.57 94.99 88.09 81.25 C 90.48 74.80 92.68 67.51 90.21 60.74 C 87.84 54.65 81.56 51.34 75.65 49.51 C 71.35 48.05 66.19 47.62 63.21 43.76 C 60.00 39.75 61.08 34.17 62.72 29.74 C 66.36 20.44 72.61 12.47 79.04 4.95 Z" />
</g>
</svg>
