<svg xmlns="http://www.w3.org/2000/svg" width="472" height="236" version="1.1" viewBox="0 0 354 177"><g id="#3d3f6fff"><path fill="#3d3f6f" d="M 176.25 8.36 C 180.48 8.38 184.72 8.39 188.95 8.34 C 189.07 26.67 188.97 45.00 189.00 63.33 C 184.74 63.33 180.48 63.40 176.22 63.26 C 176.30 44.96 176.24 26.66 176.25 8.36 Z" opacity="1"/><path fill="#3d3f6f" d="M 28.57 17.59 C 41.72 9.70 57.92 7.54 72.79 11.01 C 65.39 17.55 58.01 24.15 51.44 31.55 C 46.22 37.46 40.92 43.75 38.55 51.42 C 37.43 54.88 38.13 59.55 41.81 61.14 C 46.58 62.96 53.01 63.21 55.67 68.28 C 57.25 73.28 53.06 77.56 49.84 80.82 C 38.74 91.14 25.15 98.22 11.86 105.25 C 5.65 97.56 1.79 88.17 0.00 78.49 L 0.00 59.31 C 2.76 42.08 13.48 26.36 28.57 17.59 Z" opacity="1"/><path fill="#3d3f6f" d="M 246.08 11.82 C 250.32 11.69 254.57 11.80 258.81 11.69 C 258.90 15.08 258.89 18.47 258.86 21.87 C 261.61 21.88 264.36 21.88 267.11 21.88 C 267.17 25.41 267.17 28.94 267.15 32.48 C 264.44 32.49 261.73 32.48 259.03 32.42 C 258.80 38.27 258.76 44.14 258.98 49.99 C 259.60 53.75 264.59 52.23 267.27 52.60 C 267.28 56.18 267.28 59.76 267.27 63.33 C 261.88 63.26 255.93 64.02 251.19 60.86 C 247.54 58.60 246.30 54.09 246.18 50.04 C 246.03 44.19 246.17 38.34 246.12 32.48 C 244.46 32.47 242.80 32.50 241.15 32.50 C 241.09 28.96 241.09 25.42 241.11 21.89 C 242.78 21.86 244.45 21.90 246.12 21.87 C 246.13 18.52 246.13 15.17 246.08 11.82 Z" opacity="1"/><path fill="#3d3f6f" d="M 79.05 12.95 C 92.93 18.06 104.78 28.41 111.51 41.60 C 119.35 56.66 120.22 75.11 113.85 90.85 C 106.18 110.54 87.26 125.26 66.26 127.71 C 74.33 115.64 82.30 103.35 87.85 89.87 C 90.29 83.44 92.56 76.27 90.46 69.43 C 88.43 63.18 82.21 59.62 76.30 57.72 C 71.78 56.08 66.25 55.80 63.13 51.66 C 60.01 47.64 61.09 42.12 62.73 37.72 C 66.38 28.43 72.62 20.46 79.05 12.95 Z" opacity="1"/><path fill="#3d3f6f" d="M 143.28 23.33 C 150.49 20.12 160.12 20.23 166.16 25.82 C 168.82 28.31 170.07 31.86 170.69 35.37 C 166.83 35.38 162.97 35.40 159.12 35.34 C 158.07 31.46 153.72 29.68 150.10 31.16 C 147.87 31.74 147.43 35.30 149.53 36.30 C 155.17 38.94 162.06 38.79 167.02 42.90 C 171.81 46.69 172.02 54.59 167.83 58.90 C 164.85 62.14 160.38 63.52 156.09 63.85 C 150.13 64.30 143.69 62.90 139.20 58.73 C 136.66 56.40 135.38 53.07 134.76 49.75 C 138.88 49.71 143.01 49.71 147.14 49.74 C 148.39 54.08 153.86 55.93 157.61 53.58 C 159.32 52.46 159.22 49.48 157.20 48.74 C 151.23 45.84 143.55 46.36 138.73 41.26 C 133.80 35.72 136.53 26.06 143.28 23.33 Z" opacity="1"/><path fill="#3d3f6f" d="M 278.02 24.83 C 285.93 19.64 297.47 19.98 304.70 26.27 C 310.20 31.00 311.73 38.74 310.92 45.67 C 301.36 45.54 291.81 45.79 282.25 45.53 C 282.13 49.46 285.02 53.35 289.12 53.53 C 292.32 54.06 295.29 52.24 296.86 49.53 C 301.32 49.48 305.79 49.49 310.26 49.54 C 308.74 54.60 305.46 59.22 300.62 61.56 C 291.25 66.38 277.95 63.88 272.48 54.40 C 267.24 45.02 268.69 31.14 278.02 24.83 M 282.07 38.55 C 287.43 38.61 292.78 38.55 298.13 38.60 C 298.39 33.00 291.76 30.00 287.08 32.02 C 284.21 32.97 282.85 35.86 282.07 38.55 Z" opacity="1"/><path fill="#3d3f6f" d="M 194.23 35.89 C 195.88 28.43 202.18 21.82 210.06 21.35 C 215.55 20.63 220.92 23.07 224.52 27.15 C 224.52 25.40 224.50 23.64 224.50 21.89 C 228.75 21.88 232.99 21.87 237.24 21.89 C 237.25 35.71 237.24 49.52 237.25 63.34 C 232.99 63.34 228.73 63.34 224.47 63.33 C 224.51 61.55 224.55 59.76 224.63 57.97 C 222.35 60.06 219.99 62.27 216.94 63.14 C 210.16 65.34 202.09 62.90 197.91 57.06 C 193.36 51.11 192.72 43.02 194.23 35.89 M 213.48 32.56 C 203.79 34.50 204.13 51.03 213.81 52.70 C 220.91 54.29 226.15 46.42 224.30 40.02 C 223.65 35.03 218.40 31.32 213.48 32.56 Z" opacity="1"/><path fill="#3d3f6f" d="M 229.55 76.65 C 233.77 76.63 237.99 76.63 242.21 76.65 C 242.28 94.90 242.11 113.16 242.29 131.41 C 238.04 131.66 233.78 131.54 229.52 131.50 C 229.58 113.21 229.51 94.93 229.55 76.65 Z" opacity="1"/><path fill="#3d3f6f" d="M 249.27 131.55 C 249.29 113.22 249.13 94.89 249.35 76.56 C 253.55 76.68 257.76 76.63 261.97 76.64 C 261.90 94.97 262.11 113.30 261.86 131.62 C 257.66 131.50 253.47 131.54 249.27 131.55 Z" opacity="1"/><path fill="#3d3f6f" d="M 133.21 90.13 C 137.75 90.08 142.30 90.08 146.84 90.13 C 149.70 99.83 152.76 109.47 155.61 119.17 C 159.19 109.71 161.69 99.84 164.67 90.17 C 169.20 90.04 173.74 90.11 178.27 90.11 C 173.42 103.95 168.50 117.76 163.57 131.57 C 158.46 131.44 153.34 131.70 148.24 131.47 C 147.26 130.64 147.15 129.18 146.62 128.07 C 142.23 115.39 137.66 102.79 133.21 90.13 Z" opacity="1"/><path fill="#3d3f6f" d="M 187.43 92.42 C 194.30 87.66 205.02 88.66 209.89 95.82 C 209.87 93.91 209.86 92.01 209.87 90.10 C 214.11 90.10 218.35 90.07 222.59 90.14 C 222.53 103.94 222.59 117.74 222.57 131.54 C 218.39 131.55 214.22 131.50 210.05 131.62 C 209.92 129.77 209.88 127.92 209.83 126.08 C 203.61 134.65 189.47 133.89 183.43 125.50 C 176.27 115.81 177.16 99.65 187.43 92.42 M 197.22 101.36 C 191.50 103.84 190.45 111.67 193.21 116.70 C 195.63 121.22 202.31 122.58 206.24 119.24 C 210.23 116.24 210.66 110.36 209.01 105.99 C 207.27 101.49 201.55 99.30 197.22 101.36 Z" opacity="1"/><path fill="#3d3f6f" d="M 269.18 99.19 C 276.18 86.60 297.07 86.18 304.72 98.31 C 307.79 102.86 308.14 108.54 307.83 113.85 C 298.15 113.92 288.47 113.83 278.79 113.90 C 279.16 118.13 282.46 122.09 286.95 121.89 C 289.96 122.11 292.01 119.85 293.97 117.96 C 298.31 117.71 302.67 117.94 307.02 117.89 C 305.29 124.19 300.31 129.45 293.99 131.23 C 287.32 133.07 279.58 132.31 274.00 127.98 C 265.46 121.40 264.25 108.31 269.18 99.19 M 278.90 106.74 C 284.30 106.83 289.70 106.82 295.10 106.75 C 294.84 102.64 291.13 99.37 287.01 99.72 C 282.90 99.50 279.63 102.90 278.90 106.74 Z" opacity="1"/><path fill="#3d3f6f" d="M 307.70 90.11 C 312.42 90.10 317.15 90.10 321.88 90.10 C 325.15 98.71 328.19 107.41 331.54 115.98 C 334.62 107.34 337.85 98.74 340.95 90.11 C 345.30 90.10 349.65 90.10 354.00 90.10 L 354.00 92.18 C 345.38 111.77 337.15 131.54 328.78 151.24 C 324.21 151.30 319.64 151.29 315.07 151.29 C 318.17 144.22 321.43 137.22 324.55 130.15 C 318.95 116.79 313.31 103.46 307.70 90.11 Z" opacity="1"/><path fill="#3d3f6f" d="M 195.22 150.48 C 196.43 149.26 198.52 151.07 197.36 152.39 C 196.25 153.73 193.77 151.72 195.22 150.48 Z" opacity="1"/><path fill="#3d3f6f" d="M 216.50 150.43 C 216.89 150.53 217.65 150.71 218.03 150.80 C 218.00 153.61 217.99 156.42 218.03 159.23 C 219.84 157.32 221.39 155.01 223.89 153.93 C 223.43 156.63 220.81 158.10 219.19 160.08 C 221.02 161.93 223.06 163.68 224.25 166.05 C 221.42 165.55 219.96 162.81 218.07 160.96 C 218.04 162.70 217.95 164.44 217.83 166.18 C 217.51 165.98 216.89 165.59 216.58 165.39 C 216.24 160.42 216.49 155.41 216.50 150.43 Z" opacity="1"/><path fill="#3d3f6f" d="M 147.31 151.37 C 150.04 151.53 153.21 150.72 155.57 152.47 C 157.41 154.21 156.29 156.66 155.11 158.39 C 156.38 159.75 157.88 161.82 156.42 163.63 C 154.46 166.71 150.32 165.42 147.30 165.64 C 147.22 160.88 147.21 156.13 147.31 151.37 M 148.94 152.76 C 148.94 154.41 148.94 156.06 148.95 157.71 C 151.04 157.60 155.18 158.20 155.00 155.03 C 154.88 152.02 150.94 153.08 148.94 152.76 M 148.91 158.98 C 148.93 160.75 148.93 162.53 148.96 164.31 C 150.87 164.19 152.89 164.48 154.67 163.63 C 155.35 162.50 155.43 161.34 154.91 160.14 C 153.46 158.35 150.89 159.25 148.91 158.98 Z" opacity="1"/><path fill="#3d3f6f" d="M 182.32 150.74 C 184.57 152.32 183.03 155.56 183.49 157.81 C 186.09 155.61 187.70 151.97 191.19 151.00 C 189.74 154.04 186.86 155.99 184.85 158.61 C 186.98 161.07 189.89 162.99 191.14 166.09 C 187.75 164.92 185.94 161.55 183.44 159.20 C 183.03 161.40 184.76 165.11 182.02 165.97 C 182.13 160.89 181.63 155.78 182.32 150.74 Z" opacity="1"/><path fill="#3d3f6f" d="M 241.13 151.56 C 242.33 151.96 242.85 152.91 242.69 154.40 C 243.51 154.47 245.15 154.60 245.97 154.66 C 245.34 156.08 243.79 156.01 242.47 156.19 C 242.42 158.79 242.47 161.40 242.64 164.00 C 243.48 164.15 245.17 164.43 246.01 164.57 C 245.19 166.39 242.54 165.93 241.39 164.70 C 239.84 161.68 242.88 156.82 239.09 155.01 C 240.78 154.59 241.46 153.43 241.13 151.56 Z" opacity="1"/><path fill="#3d3f6f" d="M 275.26 151.56 C 276.42 151.97 277.00 152.87 277.02 154.24 C 277.67 154.36 278.96 154.59 279.61 154.70 L 279.57 155.94 C 278.86 155.96 277.43 155.98 276.72 156.00 C 276.68 158.70 276.71 161.41 276.89 164.11 C 277.66 164.19 279.18 164.36 279.94 164.45 C 279.71 166.24 277.61 165.78 276.37 165.44 C 273.02 162.97 277.04 157.53 273.48 155.13 C 274.73 154.32 275.10 152.99 275.26 151.56 Z" opacity="1"/><path fill="#3d3f6f" d="M 160.16 154.03 C 163.66 155.71 163.44 160.58 165.55 163.55 C 167.03 160.27 167.46 156.26 170.27 153.75 C 170.24 156.67 168.64 159.24 167.66 161.92 C 166.35 164.86 165.50 168.03 163.85 170.81 C 163.49 170.88 162.76 171.00 162.39 171.07 C 163.01 169.10 164.16 167.23 164.26 165.16 C 163.07 161.38 161.01 157.92 160.16 154.03 Z" opacity="1"/><path fill="#3d3f6f" d="M 195.60 154.41 C 196.62 154.24 197.09 154.69 197.00 155.77 C 197.06 159.25 197.11 162.75 196.80 166.22 C 196.49 166.01 195.88 165.58 195.58 165.36 C 195.26 161.72 195.34 158.04 195.60 154.41 Z" opacity="1"/><path fill="#3d3f6f" d="M 204.67 154.76 C 207.76 153.41 211.30 155.16 212.30 158.33 C 209.85 158.27 208.70 154.94 206.03 155.85 C 202.24 156.53 202.49 161.37 204.17 163.93 C 204.88 164.07 206.29 164.35 207.00 164.49 C 209.25 164.55 209.98 161.60 212.32 161.93 C 211.18 164.73 208.16 166.82 205.09 165.65 C 200.36 164.31 200.03 156.45 204.67 154.76 Z" opacity="1"/><path fill="#3d3f6f" d="M 227.84 157.91 C 227.48 152.94 236.15 153.30 236.13 158.14 C 233.87 157.37 231.50 153.83 229.28 157.02 C 229.91 160.49 236.12 158.90 236.02 162.86 C 235.29 167.41 227.82 166.59 227.28 162.22 C 229.69 163.03 232.78 166.50 234.63 162.80 C 233.36 159.96 228.31 161.32 227.84 157.91 Z" opacity="1"/><path fill="#3d3f6f" d="M 252.48 154.67 C 254.63 153.73 256.77 154.88 258.65 155.87 C 258.99 155.35 259.67 154.33 260.01 153.82 C 260.44 158.02 260.32 162.25 260.10 166.46 C 259.73 165.90 258.97 164.78 258.60 164.22 C 256.81 165.39 254.52 166.64 252.40 165.50 C 247.88 163.88 247.79 156.10 252.48 154.67 M 252.99 156.08 C 248.59 157.89 250.96 166.15 255.91 164.22 C 261.13 162.70 258.22 153.63 252.99 156.08 Z" opacity="1"/><path fill="#3d3f6f" d="M 265.45 154.10 C 265.90 154.42 266.80 155.05 267.25 155.37 C 268.49 154.96 270.57 153.38 271.05 155.51 C 269.71 156.12 267.57 156.16 267.09 157.86 C 266.86 160.60 266.98 163.35 266.77 166.09 C 266.44 165.93 265.78 165.59 265.45 165.43 C 265.03 161.67 265.26 157.87 265.45 154.10 Z" opacity="1"/><path fill="#3d3f6f" d="M 286.06 160.06 C 285.15 158.11 282.45 156.24 283.55 153.87 C 284.82 155.39 285.97 157.00 287.10 158.64 C 288.13 156.88 289.19 155.03 291.02 153.98 C 290.56 156.24 289.18 158.11 287.88 159.95 C 289.15 161.93 290.59 163.89 291.02 166.27 C 289.07 165.28 288.09 163.30 286.94 161.57 C 285.70 163.28 284.71 165.44 282.54 166.13 C 283.50 163.99 284.77 162.02 286.06 160.06 Z" opacity="1"/></g></svg>